<svg xmlns="http://www.w3.org/2000/svg" xmlns:xlink="http://www.w3.org/1999/xlink" version="1.1" x="0px" y="0px" viewBox="0 0 100 125" enable-background="new 0 0 100 100" xml:space="preserve"><g><path d="M52.098,97.05L29.386,47.377L52.098,2.934l22.058,44.443L52.098,97.05z M32.718,47.449l19.341,42.298l18.782-42.298   L52.059,9.603L32.718,47.449z"/></g><g><polygon points="63.017,53.754 40.378,53.754 30.381,48.755 31.723,46.071 41.086,50.754 62.317,50.754 71.835,46.067    73.161,48.759  "/></g><g><polygon points="53.531,93.772 50.625,93.024 61.123,52.234 50.616,6.605 53.54,5.932 64.211,52.273  "/></g><g><path fill="none" stroke="#000000" stroke-width="3" stroke-miterlimit="10" d="M50.565,18.521"/></g><g><polygon points="50.632,93.797 39.182,52.275 50.622,5.909 53.534,6.628 42.283,52.232 53.524,93  "/></g></svg>
