<svg xmlns:dc="http://purl.org/dc/elements/1.1/" xmlns:cc="http://creativecommons.org/ns#" xmlns:rdf="http://www.w3.org/1999/02/22-rdf-syntax-ns#" xmlns:svg="http://www.w3.org/2000/svg" xmlns="http://www.w3.org/2000/svg" xmlns:sodipodi="http://sodipodi.sourceforge.net/DTD/sodipodi-0.dtd" xmlns:inkscape="http://www.inkscape.org/namespaces/inkscape" viewBox="0 0 32 40" version="1.1" x="0px" y="0px"><g transform="translate(0,-1020.3622)"><path style="color:#000000;font-style:normal;font-variant:normal;font-weight:normal;font-stretch:normal;font-size:medium;line-height:normal;font-family:sans-serif;text-indent:0;text-align:start;text-decoration:none;text-decoration-line:none;text-decoration-style:solid;text-decoration-color:#000000;letter-spacing:normal;word-spacing:normal;text-transform:none;direction:ltr;block-progression:tb;writing-mode:lr-tb;baseline-shift:baseline;text-anchor:start;white-space:normal;clip-rule:nonzero;display:inline;overflow:visible;visibility:visible;opacity:1;isolation:auto;mix-blend-mode:normal;color-interpolation:sRGB;color-interpolation-filters:linearRGB;solid-color:#000000;solid-opacity:1;fill:#000000;fill-opacity:1;fill-rule:nonzero;stroke:none;stroke-width:1;stroke-linecap:round;stroke-linejoin:round;stroke-miterlimit:4;stroke-dasharray:none;stroke-dashoffset:0;stroke-opacity:1;color-rendering:auto;image-rendering:auto;shape-rendering:auto;text-rendering:auto;enable-background:accumulate" d="M 1.4980469 0 C 0.67554214 0 -0.001953125 0.6775 -0.001953125 1.5 C -0.001953125 2.3225 0.67554214 3 1.4980469 3 A 0.50005 0.50005 0 0 0 1.5507812 2.9960938 A 0.50005 0.50005 0 0 0 1.6035156 3 L 3.5019531 3 L 4.0058594 3 A 0.50005 0.50005 0 0 0 4.0117188 3 L 7.5058594 3 C 7.7879239 3 8.0058594 3.218 8.0058594 3.5 C 8.0058594 3.7821 7.7879239 4 7.5058594 4 A 0.50005 0.50005 0 0 0 7.4667969 4 L 4.515625 4 A 0.50005 0.50005 0 0 0 4.3671875 4.0195312 C 4.3671875 4.0195312 4.3652344 4.0195312 4.3652344 4.0195312 C 3.2248994 4.1121112 2.276399 4.9254423 2.0527344 6.0039062 L 0.50195312 6.0039062 L 0.50195312 6.0019531 A 0.50005 0.50005 0 0 0 0.001953125 6.5019531 L 0.001953125 31.501953 A 0.50005 0.50005 0 0 0 0.50390625 32.001953 L 4.1484375 31.990234 A 0.50005 0.50005 0 0 0 4.328125 31.958984 A 0.50005 0.50005 0 0 0 4.5019531 31.990234 L 31.501953 32 A 0.50005 0.50005 0 0 0 32.001953 31.5 L 32.001953 12.498047 A 0.50005 0.50005 0 0 0 31.246094 12.066406 L 25.251953 15.619141 L 25.251953 12.498047 A 0.50005 0.50005 0 0 0 24.496094 12.066406 L 18.501953 15.619141 L 18.501953 12.498047 A 0.50005 0.50005 0 0 0 17.986328 11.998047 L 17.986328 12 A 0.50005 0.50005 0 0 0 17.746094 12.066406 L 11.751953 15.623047 L 11.75 12.5 A 0.50005 0.50005 0 0 0 10.996094 12.070312 L 8.0019531 13.84375 L 8.0019531 6.5039062 A 0.50005 0.50005 0 0 0 7.5019531 6.0039062 L 5.09375 6.0039062 C 5.3047448 5.4227553 5.8756761 5 6.5761719 5 L 7.4667969 5 A 0.50005 0.50005 0 0 0 7.4902344 5 A 0.50005 0.50005 0 0 0 7.5058594 5 C 8.3283641 5 9.0058594 4.3225 9.0058594 3.5 C 9.0058594 2.7348905 8.4177061 2.1011624 7.6738281 2.015625 A 0.50005 0.50005 0 0 0 7.5410156 2 L 4.0410156 2 A 0.50005 0.50005 0 0 0 4.0117188 2 A 0.50005 0.50005 0 0 0 4.0058594 2 L 3.9609375 2 L 3.5527344 2 L 3.5019531 2 C 3.2198886 2 3.0019531 1.7821 3.0019531 1.5 C 3.0019531 1.218 3.2198886 1 3.5019531 1 A 0.50005 0.50005 0 1 0 3.5019531 0 C 2.6794484 0 2.0019531 0.6775 2.0019531 1.5 C 2.0019531 1.6763139 2.0386842 1.8422574 2.0957031 2 L 1.6035156 2 A 0.50005 0.50005 0 0 0 1.5527344 2 A 0.50005 0.50005 0 0 0 1.5488281 2 A 0.50005 0.50005 0 0 0 1.4980469 2 C 1.2159823 2 0.99804686 1.7821 0.99804688 1.5 C 0.99804686 1.218 1.2159823 1 1.4980469 1 A 0.50005 0.50005 0 1 0 1.4980469 0 z M 4.5253906 5.0039062 C 4.2983064 5.2956273 4.1298336 5.6321497 4.0527344 6.0039062 L 3.09375 6.0039062 C 3.2994925 5.437222 3.8484989 5.0242098 4.5253906 5.0039062 z M 1.0019531 7.0039062 L 7.0019531 7.0039062 L 7.0019531 14.4375 L 4.2460938 16.070312 A 0.50005 0.50005 0 0 0 4.0019531 16.5 L 4.0019531 30.990234 L 1.0019531 31.001953 L 1.0019531 7.0039062 z M 17.501953 13.375 L 17.501953 13.376953 L 17.501953 16.5 A 0.50005 0.50005 0 0 0 18.255859 16.929688 L 24.251953 13.376953 L 24.251953 16.5 A 0.50005 0.50005 0 0 0 25.005859 16.929688 L 31.001953 13.376953 L 31.001953 31.001953 L 5.0019531 30.990234 L 5.0019531 16.785156 L 10.75 13.376953 L 10.751953 16.5 A 0.50005 0.50005 0 0 0 11.507812 16.929688 L 17.501953 13.375 z M 7.5019531 19 A 0.50005 0.50005 0 0 0 7.0019531 19.5 L 7.0019531 22.5 A 0.50005 0.50005 0 0 0 7.5019531 23 L 10.501953 23 A 0.50005 0.50005 0 0 0 11.001953 22.5 L 11.001953 19.5 A 0.50005 0.50005 0 0 0 10.501953 19 L 7.5019531 19 z M 13.501953 19 A 0.50005 0.50005 0 0 0 13.001953 19.5 L 13.001953 22.5 A 0.50005 0.50005 0 0 0 13.501953 23 L 16.501953 23 A 0.50005 0.50005 0 0 0 17.001953 22.5 L 17.001953 19.5 A 0.50005 0.50005 0 0 0 16.501953 19 L 13.501953 19 z M 19.501953 19 A 0.50005 0.50005 0 0 0 19.001953 19.5 L 19.001953 22.5 A 0.50005 0.50005 0 0 0 19.501953 23 L 22.501953 23 A 0.50005 0.50005 0 0 0 23.001953 22.5 L 23.001953 19.5 A 0.50005 0.50005 0 0 0 22.501953 19 L 19.501953 19 z M 25.501953 19 A 0.50005 0.50005 0 0 0 25.001953 19.5 L 25.001953 22.5 A 0.50005 0.50005 0 0 0 25.501953 23 L 28.501953 23 A 0.50005 0.50005 0 0 0 29.001953 22.5 L 29.001953 19.5 A 0.50005 0.50005 0 0 0 28.501953 19 L 25.501953 19 z M 8.0019531 20 L 10.001953 20 L 10.001953 22 L 8.0019531 22 L 8.0019531 20 z M 14.001953 20 L 16.001953 20 L 16.001953 22 L 14.001953 22 L 14.001953 20 z M 20.001953 20 L 22.001953 20 L 22.001953 22 L 20.001953 22 L 20.001953 20 z M 26.001953 20 L 28.001953 20 L 28.001953 22 L 26.001953 22 L 26.001953 20 z M 7.5019531 25 A 0.50005 0.50005 0 0 0 7.0019531 25.5 L 7.0019531 28.5 A 0.50005 0.50005 0 0 0 7.5019531 29 L 10.501953 29 A 0.50005 0.50005 0 0 0 11.001953 28.5 L 11.001953 25.5 A 0.50005 0.50005 0 0 0 10.501953 25 L 7.5019531 25 z M 13.501953 25 A 0.50005 0.50005 0 0 0 13.001953 25.5 L 13.001953 28.5 A 0.50005 0.50005 0 0 0 13.501953 29 L 16.501953 29 A 0.50005 0.50005 0 0 0 17.001953 28.5 L 17.001953 25.5 A 0.50005 0.50005 0 0 0 16.501953 25 L 13.501953 25 z M 19.501953 25 A 0.50005 0.50005 0 0 0 19.001953 25.5 L 19.001953 28.5 A 0.50005 0.50005 0 0 0 19.501953 29 L 22.501953 29 A 0.50005 0.50005 0 0 0 23.001953 28.5 L 23.001953 25.5 A 0.50005 0.50005 0 0 0 22.501953 25 L 19.501953 25 z M 25.501953 25 A 0.50005 0.50005 0 0 0 25.001953 25.5 L 25.001953 28.5 A 0.50005 0.50005 0 0 0 25.501953 29 L 28.501953 29 A 0.50005 0.50005 0 0 0 29.001953 28.5 L 29.001953 25.5 A 0.50005 0.50005 0 0 0 28.501953 25 L 25.501953 25 z M 8.0019531 26 L 10.001953 26 L 10.001953 28 L 8.0019531 28 L 8.0019531 26 z M 14.001953 26 L 16.001953 26 L 16.001953 28 L 14.001953 28 L 14.001953 26 z M 20.001953 26 L 22.001953 26 L 22.001953 28 L 20.001953 28 L 20.001953 26 z M 26.001953 26 L 28.001953 26 L 28.001953 28 L 26.001953 28 L 26.001953 26 z " transform="translate(0,1020.3622)"/></g></svg>
