<?xml version="1.0" encoding="utf-8"?>
<!-- Generator: Adobe Illustrator 20.0.0, SVG Export Plug-In . SVG Version: 6.00 Build 0)  -->
<svg version="1.1" id="Layer_1" xmlns="http://www.w3.org/2000/svg" xmlns:xlink="http://www.w3.org/1999/xlink" x="0px" y="0px"
	 viewBox="0 0 612 165.3" style="enable-background:new 0 0 612 165.3;" xml:space="preserve">
<style type="text/css">
	.st0{fill:#010101;}
	.st1{fill:#ECF0F1;}
</style>
<rect x="-11.3" y="-226.9" class="st0" width="611.1" height="164.2"/>
<g>
	<path class="st1" d="M512.6,75.9h8.6v-5.7h5.7v-8.6h-5.7v-5.7h-8.6v5.7h-5.7v8.6h5.7V75.9L512.6,75.9z M509.7,67.3v-2.9h5.7v-5.7
		h2.9v5.7h5.7v2.9h-5.7V73h-2.9v-5.7H509.7z"/>
	<path class="st1" d="M530.6,41.5l-0.9-1.8v-5.4H504v5.4l-0.9,1.8h-19.2v81.6h65.9V41.5H530.6z M506.8,40.4v-3.2h20.1v3.2l2.9,5.7
		v1.1H504v-1.1L506.8,40.4z M547,120.3h-60.2V44.4h14.9l-0.5,1.1v4.6h31.5v-4.7l-0.5-1.1H547L547,120.3L547,120.3z"/>
	<rect x="492.5" y="81.6" class="st1" width="48.7" height="2.9"/>
	<rect x="492.5" y="91.6" class="st1" width="48.7" height="2.9"/>
	<rect x="492.5" y="101.7" class="st1" width="48.7" height="2.9"/>
	<rect x="492.5" y="111.7" class="st1" width="22.9" height="2.9"/>
	<rect x="538.4" y="111.7" class="st1" width="2.9" height="2.9"/>
	<rect x="532.6" y="111.7" class="st1" width="2.9" height="2.9"/>
	<rect x="526.9" y="111.7" class="st1" width="2.9" height="2.9"/>
</g>
<g>
	<path class="st1" d="M128,119.5c-0.3,0-0.6-0.1-0.9-0.2l-14.1-8.1c-0.6-0.3-0.9-0.9-0.9-1.6V93.8l-13.3-7c-0.6-0.3-1-0.9-1-1.6
		V69.7l-13.2-7.9l-12.3,7.7v15.7c0,0.6-0.3,1.2-0.8,1.5L59.1,95c-0.8,0.6-2,0.3-2.5-0.5c-0.6-0.8-0.3-2,0.5-2.5l11.6-7.7V68.5
		c0-0.6,0.3-1.2,0.9-1.5l14.1-8.9c0.6-0.4,1.3-0.4,1.9,0l15,9c0.5,0.3,0.9,0.9,0.9,1.6v15.4l13.3,7c0.6,0.3,1,0.9,1,1.6v15.8
		l12.2,7.1l12.3-7.6V93c0-1,0.8-1.8,1.8-1.8s1.8,0.8,1.8,1.8V109c0,0.6-0.3,1.2-0.9,1.6l-14.1,8.7
		C128.6,119.5,128.3,119.5,128,119.5z"/>
	<path class="st1" d="M113.9,94.6c-0.6,0-1.3-0.3-1.6-0.9c-0.5-0.9-0.2-2,0.7-2.5l13.6-7.6V69.4c0-1,0.8-1.8,1.8-1.8
		c1,0,1.8,0.8,1.8,1.8v15.2c0,0.7-0.4,1.3-0.9,1.6l-14.6,8.1C114.5,94.5,114.2,94.6,113.9,94.6z"/>
	<path class="st1" d="M83.8,94.6c-0.3,0-0.6-0.1-0.9-0.2l-13.3-7.5c-0.9-0.5-1.2-1.6-0.7-2.5c0.5-0.9,1.6-1.2,2.5-0.7l13.3,7.5
		c0.9,0.5,1.2,1.6,0.7,2.5C85.1,94.2,84.5,94.6,83.8,94.6z"/>
	<path class="st1" d="M84.9,61.5c-1,0-1.8-0.8-1.8-1.8V49.1c0-1,0.8-1.8,1.8-1.8s1.8,0.8,1.8,1.8v10.6
		C86.7,60.7,85.9,61.5,84.9,61.5z"/>
</g>
<g transform="translate(0,-1020.3622)">
	<path class="st1" d="M272.7,1052.7c-2.4,0-4.3,1.9-4.3,4.3s1.9,4.3,4.3,4.3c0.1,0,0.1,0,0.2,0c0.1,0,0.1,0,0.2,0h5.4h1.4
		c0,0,0,0,0,0h10c0.8,0,1.4,0.6,1.4,1.4c0,0.8-0.6,1.4-1.4,1.4c0,0-0.1,0-0.1,0h-8.4c-0.1,0-0.3,0-0.4,0.1h0c-3.3,0.3-6,2.6-6.6,5.7
		h-4.4v0c-0.8,0-1.4,0.6-1.4,1.4v71.6c0,0.8,0.6,1.4,1.4,1.4c0,0,0,0,0,0l10.4,0c0.2,0,0.3,0,0.5-0.1c0.2,0.1,0.3,0.1,0.5,0.1
		l77.3,0c0.8,0,1.4-0.6,1.4-1.4v-54.4c0-0.8-0.6-1.4-1.4-1.4c-0.3,0-0.5,0.1-0.7,0.2l-17.2,10.2v-8.9c0-0.8-0.6-1.4-1.4-1.4
		c-0.3,0-0.5,0.1-0.7,0.2l-17.2,10.2v-8.9c0-0.8-0.6-1.4-1.4-1.4c0,0,0,0,0,0v0c-0.2,0-0.5,0.1-0.7,0.2l-17.2,10.2l0-8.9
		c0-0.8-0.6-1.4-1.4-1.4c-0.3,0-0.5,0.1-0.7,0.2l-8.6,5.1v-21c0-0.8-0.6-1.4-1.4-1.4H283c0.6-1.7,2.2-2.9,4.2-2.9h2.5c0,0,0,0,0.1,0
		c0,0,0,0,0,0c2.4,0,4.3-1.9,4.3-4.3c0-2.2-1.7-4-3.8-4.2c-0.1,0-0.3,0-0.4,0h-10c0,0-0.1,0-0.1,0c0,0,0,0,0,0h-0.1h-1.2h-0.1
		c-0.8,0-1.4-0.6-1.4-1.4c0-0.8,0.6-1.4,1.4-1.4c0.8,0,1.4-0.6,1.5-1.4s-0.6-1.4-1.4-1.5c0,0,0,0,0,0c-2.4,0-4.3,1.9-4.3,4.3
		c0,0.5,0.1,1,0.3,1.4H273c0,0-0.1,0-0.1,0c0,0,0,0,0,0c0,0-0.1,0-0.1,0c-0.8,0-1.4-0.6-1.4-1.4c0-0.8,0.6-1.4,1.4-1.4
		c0.8,0,1.4-0.6,1.5-1.4S273.6,1052.7,272.7,1052.7C272.8,1052.7,272.7,1052.7,272.7,1052.7z M281.4,1067.1
		c-0.7,0.8-1.1,1.8-1.4,2.9h-2.7C277.9,1068.3,279.5,1067.1,281.4,1067.1z M271.3,1072.8h17.2v21.3l-7.9,4.7
		c-0.4,0.3-0.7,0.7-0.7,1.2v41.5l-8.6,0V1072.8z M318.5,1091L318.5,1091v8.9c0,0.8,0.6,1.4,1.4,1.4c0.3,0,0.5-0.1,0.7-0.2l17.2-10.2
		v8.9c0,0.8,0.6,1.4,1.4,1.4c0.3,0,0.5-0.1,0.7-0.2l17.2-10.2v50.5l-74.4,0v-40.7l16.5-9.8l0,8.9c0,0.8,0.6,1.4,1.4,1.4
		c0.3,0,0.5-0.1,0.7-0.2L318.5,1091z M289.9,1107.1c-0.8,0-1.4,0.6-1.4,1.4v8.6c0,0.8,0.6,1.4,1.4,1.4h8.6c0.8,0,1.4-0.6,1.4-1.4
		v-8.6c0-0.8-0.6-1.4-1.4-1.4H289.9z M307.1,1107.1c-0.8,0-1.4,0.6-1.4,1.4v8.6c0,0.8,0.6,1.4,1.4,1.4h8.6c0.8,0,1.4-0.6,1.4-1.4
		v-8.6c0-0.8-0.6-1.4-1.4-1.4H307.1z M324.3,1107.1c-0.8,0-1.4,0.6-1.4,1.4v8.6c0,0.8,0.6,1.4,1.4,1.4h8.6c0.8,0,1.4-0.6,1.4-1.4
		v-8.6c0-0.8-0.6-1.4-1.4-1.4H324.3z M341.4,1107.1c-0.8,0-1.4,0.6-1.4,1.4v8.6c0,0.8,0.6,1.4,1.4,1.4h8.6c0.8,0,1.4-0.6,1.4-1.4
		v-8.6c0-0.8-0.6-1.4-1.4-1.4H341.4z M291.4,1110h5.7v5.7h-5.7V1110z M308.5,1110h5.7v5.7h-5.7V1110z M325.7,1110h5.7v5.7h-5.7V1110
		z M342.9,1110h5.7v5.7h-5.7V1110z M289.9,1124.3c-0.8,0-1.4,0.6-1.4,1.4v8.6c0,0.8,0.6,1.4,1.4,1.4h8.6c0.8,0,1.4-0.6,1.4-1.4v-8.6
		c0-0.8-0.6-1.4-1.4-1.4H289.9z M307.1,1124.3c-0.8,0-1.4,0.6-1.4,1.4v8.6c0,0.8,0.6,1.4,1.4,1.4h8.6c0.8,0,1.4-0.6,1.4-1.4v-8.6
		c0-0.8-0.6-1.4-1.4-1.4H307.1z M324.3,1124.3c-0.8,0-1.4,0.6-1.4,1.4v8.6c0,0.8,0.6,1.4,1.4,1.4h8.6c0.8,0,1.4-0.6,1.4-1.4v-8.6
		c0-0.8-0.6-1.4-1.4-1.4H324.3z M341.4,1124.3c-0.8,0-1.4,0.6-1.4,1.4v8.6c0,0.8,0.6,1.4,1.4,1.4h8.6c0.8,0,1.4-0.6,1.4-1.4v-8.6
		c0-0.8-0.6-1.4-1.4-1.4H341.4z M291.4,1127.2h5.7v5.7h-5.7V1127.2z M308.5,1127.2h5.7v5.7h-5.7V1127.2z M325.7,1127.2h5.7v5.7h-5.7
		V1127.2z M342.9,1127.2h5.7v5.7h-5.7V1127.2z"/>
</g>
<path class="st1" d="M173,82.8c0,0.8,0.7,1.5,1.5,1.5h49.8l-12.9,12.9c-0.3,0.3-0.4,0.7-0.4,1.1s0.1,0.8,0.4,1.1
	c0.6,0.6,1.5,0.6,2.1,0l15.2-15.2c0.6-0.6,0.6-1.5,0-2.1l-15.2-15.2c-0.6-0.6-1.5-0.6-2.1,0c-0.6,0.6-0.6,1.5,0,2.1l12.5,12.5h-49.4
	C173.7,81.3,173,82,173,82.8z"/>
<path class="st1" d="M393.9,83c0,0.8,0.7,1.5,1.5,1.5h49.8l-12.9,12.9c-0.3,0.3-0.4,0.7-0.4,1.1s0.1,0.8,0.4,1.1
	c0.6,0.6,1.5,0.6,2.1,0l15.2-15.2c0.6-0.6,0.6-1.5,0-2.1l-15.2-15.2c-0.6-0.6-1.5-0.6-2.1,0c-0.6,0.6-0.6,1.5,0,2.1l12.5,12.5h-49.4
	C394.5,81.5,393.9,82.2,393.9,83z"/>
</svg>
