<?xml version="1.0" encoding="utf-8"?>
<!-- Generator: Adobe Illustrator 20.0.0, SVG Export Plug-In . SVG Version: 6.00 Build 0)  -->
<svg version="1.1" id="Layer_1" xmlns="http://www.w3.org/2000/svg" xmlns:xlink="http://www.w3.org/1999/xlink" x="0px" y="0px"
	 viewBox="0 0 600 400" style="enable-background:new 0 0 600 400;" xml:space="preserve">
<style type="text/css">
	.st0{fill:#FFFFFF;stroke:#CCCCCC;stroke-miterlimit:10;}
	.st1{fill:#3498DB;}
	.st2{font-family:'SourceSansPro-Regular';}
	.st3{font-size:12px;}
	.st4{fill:#E74C3C;}
	.st5{fill:#BBBBBB;}
</style>
<circle class="st0" cx="74.2" cy="106.4" r="52.7"/>
<circle class="st0" cx="233.6" cy="106.4" r="52.7"/>
<circle class="st0" cx="74.2" cy="317.2" r="52.7"/>
<circle class="st0" cx="233.6" cy="317.2" r="52.7"/>
<circle class="st0" cx="393" cy="211.8" r="52.7"/>
<text transform="matrix(1 0 0 1 39.8498 111.0419)" class="st1 st2 st3">a8845ac329...</text>
<text transform="matrix(1 0 0 1 202.5164 111.0417)" class="st1 st2 st3">b94d27b993...</text>
<text transform="matrix(1 0 0 1 39.7418 323.7532)" class="st4 st2 st3">ec6e5217b0...</text>
<text transform="matrix(1 0 0 1 202.5166 323.7536)" class="st4 st2 st3">12c56cfcdc...</text>
<text transform="matrix(1 0 0 1 360.8499 224.0417)" class="st4 st2 st3">136ebd2d52...</text>
<text transform="matrix(1 0 0 1 360.8503 209.0417)" class="st1 st2 st3">10758a85d7...</text>
<text transform="matrix(1 0 0 1 41.0163 48.2751)" class="st1 st2 st3">Raw Materials</text>
<text transform="matrix(1 0 0 1 224.6829 48.2749)" class="st1 st2 st3">API</text>
<text transform="matrix(1 0 0 1 356.0168 151.275)" class="st1 st2 st3">Manufacturing</text>
<path class="st5" d="M136.8,108c0,0.4,0.4,0.8,0.8,0.8h26.9l-7,7c-0.2,0.2-0.2,0.4-0.2,0.6s0.1,0.4,0.2,0.6c0.3,0.3,0.8,0.3,1.1,0
	l8.2-8.2c0.3-0.3,0.3-0.8,0-1.1l-8.2-8.2c-0.3-0.3-0.8-0.3-1.1,0s-0.3,0.8,0,1.1l6.7,6.7h-26.7C137.2,107.2,136.8,107.6,136.8,108z"
	/>
<path class="st5" d="M306.9,143.3c-0.3,0.3-0.3,0.8,0,1.1l19,19H316c-0.2,0-0.4,0.1-0.6,0.2c-0.1,0.1-0.2,0.3-0.2,0.6
	c0,0.4,0.4,0.8,0.8,0.8h11.7c0.4,0,0.8-0.4,0.8-0.8v-11.7c0-0.4-0.4-0.8-0.8-0.8s-0.8,0.4-0.8,0.8v9.5L308,143.1
	C307.8,142.9,307.2,142.9,306.9,143.3z"/>
<path class="st5" d="M306.8,287.2c0.3,0.3,0.8,0.3,1.1,0l19-19v9.9c0,0.2,0.1,0.4,0.2,0.6c0.1,0.1,0.3,0.2,0.6,0.2
	c0.4,0,0.8-0.4,0.8-0.8v-11.7c0-0.4-0.4-0.8-0.8-0.8H316c-0.4,0-0.8,0.4-0.8,0.8s0.4,0.8,0.8,0.8h9.5l-18.9,18.9
	C306.4,286.4,306.4,286.9,306.8,287.2z"/>
<path class="st5" d="M136.8,321.2c0,0.4,0.4,0.8,0.8,0.8h26.9l-7,7c-0.2,0.2-0.2,0.4-0.2,0.6s0.1,0.4,0.2,0.6c0.3,0.3,0.8,0.3,1.1,0
	l8.2-8.2c0.3-0.3,0.3-0.8,0-1.1l-8.2-8.2c-0.3-0.3-0.8-0.3-1.1,0s-0.3,0.8,0,1.1l6.7,6.7h-26.7C137.2,320.3,136.8,320.7,136.8,321.2
	z"/>
</svg>
