<svg xmlns="http://www.w3.org/2000/svg" xmlns:xlink="http://www.w3.org/1999/xlink" version="1.1" x="0px" y="0px" viewBox="0 0 48 60" enable-background="new 0 0 48 48" xml:space="preserve"><g><path d="M39.277,43.805c-0.172,0-0.345-0.045-0.499-0.134l-7.723-4.451c-0.311-0.179-0.501-0.509-0.501-0.866v-8.63l-7.272-3.832   c-0.328-0.173-0.534-0.514-0.534-0.885v-8.5l-7.214-4.343L8.8,16.41v8.597c0,0.334-0.167,0.646-0.445,0.832l-6.8,4.534   c-0.46,0.305-1.081,0.182-1.387-0.277c-0.306-0.459-0.182-1.08,0.277-1.387L6.8,24.472v-8.614c0-0.343,0.176-0.663,0.467-0.846   l7.723-4.869c0.32-0.202,0.726-0.205,1.049-0.011l8.226,4.952c0.301,0.181,0.484,0.506,0.484,0.857v8.462l7.271,3.832   c0.329,0.173,0.534,0.514,0.534,0.885v8.655l6.704,3.864L46,37.461v-8.173c0-0.553,0.447-1,1-1s1,0.447,1,1v8.729   c0,0.346-0.179,0.668-0.473,0.85l-7.723,4.787C39.643,43.755,39.46,43.805,39.277,43.805z"/><path d="M31.556,30.12c-0.351,0-0.691-0.185-0.874-0.513c-0.27-0.482-0.097-1.092,0.386-1.36l7.462-4.163V16.36   c0-0.552,0.447-1,1-1s1,0.448,1,1v8.312c0,0.362-0.196,0.696-0.513,0.873l-7.975,4.448C31.888,30.079,31.721,30.12,31.556,30.12z"/><path d="M15.102,30.12c-0.166,0-0.334-0.041-0.49-0.129l-7.303-4.113c-0.481-0.271-0.651-0.881-0.38-1.362   c0.271-0.481,0.879-0.652,1.362-0.38l7.303,4.113c0.481,0.271,0.652,0.881,0.38,1.362C15.791,29.937,15.452,30.12,15.102,30.12z"/><path d="M15.682,11.989c-0.552,0-1-0.448-1-1V5.197c0-0.552,0.448-1,1-1s1,0.448,1,1v5.792   C16.682,11.542,16.234,11.989,15.682,11.989z"/></g></svg>
