<svg xmlns="http://www.w3.org/2000/svg" xmlns:xlink="http://www.w3.org/1999/xlink" version="1.1" x="0px" y="0px" viewBox="0 0 512 640" enable-background="new 0 0 512 512" xml:space="preserve"><g><g><path d="M321.002,259.698l-9.577,7.454l11.737,3.084c21.47,5.643,40.659,14.097,57.034,25.129l6.705-9.952    c-14.678-9.889-31.415-17.824-49.876-23.658c23.615-22.251,36.954-52.922,36.954-85.754c0-65.065-52.93-118-117.99-118    c-65.062,0-117.995,52.935-117.995,118c0,32.836,13.332,63.505,36.931,85.749C100.437,285.204,58,340.887,58,416v38h250v-12H70    v-26c0-37.817,11.152-69.929,33.146-95.443c20.278-23.524,49.895-40.925,85.648-50.321l11.737-3.084l-9.577-7.454    c-26.03-20.26-40.959-50.767-40.959-83.698c0-58.449,47.549-106,105.995-106c58.443,0,105.99,47.551,105.99,106    C361.979,208.923,347.043,239.429,321.002,259.698z"/><path d="M384,314c-38.598,0-70,31.402-70,70s31.402,70,70,70s70-31.402,70-70S422.598,314,384,314z M384,442    c-31.981,0-58-26.019-58-58s26.019-58,58-58s58,26.019,58,58S415.981,442,384,442z"/><polygon points="390,352 378,352 378,378 352,378 352,390 378,390 378,416 390,416 390,390 416,390 416,378 390,378   "/></g></g></svg>
