<svg xmlns="http://www.w3.org/2000/svg" xmlns:xlink="http://www.w3.org/1999/xlink" version="1.1" x="0px" y="0px" viewBox="0 0 512 640" enable-background="new 0 0 512 512" xml:space="preserve"><g><path d="M231.4,239.6h49.2v-32.8h32.8v-49.2h-32.8v-32.8h-49.2v32.8h-32.8v49.2h32.8V239.6z M215,190.5v-16.4h32.8v-32.8h16.4v32.8   H297v16.4h-32.8v32.8h-16.4v-32.8H215z"/><path d="M334.8,43l-5.1-10.1V2H182.3v30.8L177.2,43H67.5v467h376.9V43H334.8z M198.6,36.7V18.4h114.7v18.3l16.4,32.8v6.3H182.3   v-6.3L198.6,36.7z M428.1,493.6H83.9V59.4H169l-3.1,6.3v26.5h180.3V65.6l-3.1-6.3h85.1V493.6z"/><rect x="116.7" y="272.4" width="278.6" height="16.4"/><rect x="116.7" y="329.7" width="278.6" height="16.4"/><rect x="116.7" y="387.1" width="278.6" height="16.4"/><rect x="116.7" y="444.5" width="131.1" height="16.4"/><rect x="378.9" y="444.5" width="16.4" height="16.4"/><rect x="346.1" y="444.5" width="16.4" height="16.4"/><rect x="313.4" y="444.5" width="16.4" height="16.4"/></g></svg>
