<svg xmlns:dc="http://purl.org/dc/elements/1.1/" xmlns:cc="http://creativecommons.org/ns#" xmlns:rdf="http://www.w3.org/1999/02/22-rdf-syntax-ns#" xmlns:svg="http://www.w3.org/2000/svg" xmlns="http://www.w3.org/2000/svg" xmlns:sodipodi="http://sodipodi.sourceforge.net/DTD/sodipodi-0.dtd" xmlns:inkscape="http://www.inkscape.org/namespaces/inkscape" version="1.1" x="0px" y="0px" viewBox="0 0 100 100"><g transform="translate(0,-952.36218)"><path style="font-size:medium;font-style:normal;font-variant:normal;font-weight:normal;font-stretch:normal;text-indent:0;text-align:start;text-decoration:none;line-height:normal;letter-spacing:normal;word-spacing:normal;text-transform:none;direction:ltr;block-progression:tb;writing-mode:lr-tb;text-anchor:start;baseline-shift:baseline;opacity:1;color:#000000;fill:#000000;fill-opacity:1;stroke:none;stroke-width:6;marker:none;visibility:visible;display:inline;overflow:visible;enable-background:accumulate;font-family:Sans;-inkscape-font-specification:Sans" d="M 17.65625 14.96875 A 3.0003 3.0003 0 0 0 15.875 20.09375 L 45.75 50 L 15.875 79.875 A 3.0003 3.0003 0 1 0 20.125 84.09375 L 50 54.21875 L 79.875 84.09375 A 3.0003 3.0003 0 1 0 84.125 79.875 L 54.25 50 L 84.125 20.09375 A 3.0003 3.0003 0 0 0 81.65625 14.96875 A 3.0003 3.0003 0 0 0 79.875 15.875 L 50 45.75 L 20.125 15.875 A 3.0003 3.0003 0 0 0 17.65625 14.96875 z " transform="translate(0,952.36218)"/></g></svg>
